# xmcd
# Track frame offsets:
# 150
# 13123
# 30755
# 45390
# 61758
# 71157
# 91167
# 106542
# 117935
# 134550
# 149462
# 161452
# 177390
# 191180
# 207127
# 221637
# 239852
# 254419
# 271489
# 288769
#
# Disc length: 4027 seconds
# Revision: 0
# Processed by: cddbd v1.5PL3 Copyright (c) Steve Scherf et al.
# Submitted via: VisiTrax 2.9.6.190 - For more info visit www.synapsa.com
#
DISCID=260fb914
DTITLE=Henson Cargill - All American  Cowboy
DYEAR=1900
DGENRE=
TTITLE0=All American Cowboy
TTITLE1=Bridges I Have Burned
TTITLE2=Till I´m Too Old To Die Young
TTITLE3=One More Wild Horse
TTITLE4=Georgia On A Fast Train
TTITLE5=Blues Man
TTITLE6=Spanish Guitar
TTITLE7=Leavin` Ain´t The Only Way To Go
TTITLE8=Strawberry Roan
TTITLE9=Here Comes That Rainbow Again
TTITLE10=Skip A Rope
TTITLE11=It´s Not My Arm She´s Twistin´
TTITLE12=The Rambler
TTITLE13=Faded Glory
TTITLE14=Silent Rebels
TTITLE15=Silence On The Line
TTITLE16=I Believe
TTITLE17=Forever In Blue Jeans
TTITLE18=Have A good Day
TTITLE19=Gravel On The Ground
EXTD=Amethyst Records\nP.o.Box 82158\nOkle.City 73148-2158
EXTT0=
EXTT1=
EXTT2=
EXTT3=
EXTT4=
EXTT5=
EXTT6=
EXTT7=
EXTT8=
EXTT9=
EXTT10=
EXTT11=
EXTT12=
EXTT13=
EXTT14=
EXTT15=
EXTT16=
EXTT17=
EXTT18=
EXTT19=
PLAYORDER=
